# RealStant original static game mesh
v -0.70000 0.43000 -1.10000
v 0.70000 0.43000 -1.10000
v 0.70000 0.87000 -1.10000
v -0.70000 0.87000 -1.10000
v -0.70000 0.43000 1.10000
v 0.70000 0.43000 1.10000
v 0.70000 0.87000 1.10000
v -0.70000 0.87000 1.10000
v -0.55000 0.80000 -0.84000
v 0.55000 0.80000 -0.84000
v 0.55000 1.04000 -0.84000
v -0.55000 1.04000 -0.84000
v -0.55000 0.80000 0.40000
v 0.55000 0.80000 0.40000
v 0.55000 1.04000 0.40000
v -0.55000 1.04000 0.40000
v -0.88000 0.82000 -0.82000
v -0.56000 0.82000 -0.82000
v -0.88000 0.80841 -0.73200
v -0.56000 0.80841 -0.73200
v -0.88000 0.77445 -0.65000
v -0.56000 0.77445 -0.65000
v -0.88000 0.72042 -0.57958
v -0.56000 0.72042 -0.57958
v -0.88000 0.65000 -0.52555
v -0.56000 0.65000 -0.52555
v -0.88000 0.56800 -0.49159
v -0.56000 0.56800 -0.49159
v -0.88000 0.48000 -0.48000
v -0.56000 0.48000 -0.48000
v -0.88000 0.39200 -0.49159
v -0.56000 0.39200 -0.49159
v -0.88000 0.31000 -0.52555
v -0.56000 0.31000 -0.52555
v -0.88000 0.23958 -0.57958
v -0.56000 0.23958 -0.57958
v -0.88000 0.18555 -0.65000
v -0.56000 0.18555 -0.65000
v -0.88000 0.15159 -0.73200
v -0.56000 0.15159 -0.73200
v -0.88000 0.14000 -0.82000
v -0.56000 0.14000 -0.82000
v -0.88000 0.15159 -0.90800
v -0.56000 0.15159 -0.90800
v -0.88000 0.18555 -0.99000
v -0.56000 0.18555 -0.99000
v -0.88000 0.23958 -1.06042
v -0.56000 0.23958 -1.06042
v -0.88000 0.31000 -1.11445
v -0.56000 0.31000 -1.11445
v -0.88000 0.39200 -1.14841
v -0.56000 0.39200 -1.14841
v -0.88000 0.48000 -1.16000
v -0.56000 0.48000 -1.16000
v -0.88000 0.56800 -1.14841
v -0.56000 0.56800 -1.14841
v -0.88000 0.65000 -1.11445
v -0.56000 0.65000 -1.11445
v -0.88000 0.72042 -1.06042
v -0.56000 0.72042 -1.06042
v -0.88000 0.77445 -0.99000
v -0.56000 0.77445 -0.99000
v -0.88000 0.80841 -0.90800
v -0.56000 0.80841 -0.90800
v -0.72000 0.48000 -0.88000
v -0.72000 0.48000 -0.56000
v -0.88000 0.82000 0.82000
v -0.56000 0.82000 0.82000
v -0.88000 0.80841 0.90800
v -0.56000 0.80841 0.90800
v -0.88000 0.77445 0.99000
v -0.56000 0.77445 0.99000
v -0.88000 0.72042 1.06042
v -0.56000 0.72042 1.06042
v -0.88000 0.65000 1.11445
v -0.56000 0.65000 1.11445
v -0.88000 0.56800 1.14841
v -0.56000 0.56800 1.14841
v -0.88000 0.48000 1.16000
v -0.56000 0.48000 1.16000
v -0.88000 0.39200 1.14841
v -0.56000 0.39200 1.14841
v -0.88000 0.31000 1.11445
v -0.56000 0.31000 1.11445
v -0.88000 0.23958 1.06042
v -0.56000 0.23958 1.06042
v -0.88000 0.18555 0.99000
v -0.56000 0.18555 0.99000
v -0.88000 0.15159 0.90800
v -0.56000 0.15159 0.90800
v -0.88000 0.14000 0.82000
v -0.56000 0.14000 0.82000
v -0.88000 0.15159 0.73200
v -0.56000 0.15159 0.73200
v -0.88000 0.18555 0.65000
v -0.56000 0.18555 0.65000
v -0.88000 0.23958 0.57958
v -0.56000 0.23958 0.57958
v -0.88000 0.31000 0.52555
v -0.56000 0.31000 0.52555
v -0.88000 0.39200 0.49159
v -0.56000 0.39200 0.49159
v -0.88000 0.48000 0.48000
v -0.56000 0.48000 0.48000
v -0.88000 0.56800 0.49159
v -0.56000 0.56800 0.49159
v -0.88000 0.65000 0.52555
v -0.56000 0.65000 0.52555
v -0.88000 0.72042 0.57958
v -0.56000 0.72042 0.57958
v -0.88000 0.77445 0.65000
v -0.56000 0.77445 0.65000
v -0.88000 0.80841 0.73200
v -0.56000 0.80841 0.73200
v -0.72000 0.48000 -0.88000
v -0.72000 0.48000 -0.56000
v 0.56000 0.82000 -0.82000
v 0.88000 0.82000 -0.82000
v 0.56000 0.80841 -0.73200
v 0.88000 0.80841 -0.73200
v 0.56000 0.77445 -0.65000
v 0.88000 0.77445 -0.65000
v 0.56000 0.72042 -0.57958
v 0.88000 0.72042 -0.57958
v 0.56000 0.65000 -0.52555
v 0.88000 0.65000 -0.52555
v 0.56000 0.56800 -0.49159
v 0.88000 0.56800 -0.49159
v 0.56000 0.48000 -0.48000
v 0.88000 0.48000 -0.48000
v 0.56000 0.39200 -0.49159
v 0.88000 0.39200 -0.49159
v 0.56000 0.31000 -0.52555
v 0.88000 0.31000 -0.52555
v 0.56000 0.23958 -0.57958
v 0.88000 0.23958 -0.57958
v 0.56000 0.18555 -0.65000
v 0.88000 0.18555 -0.65000
v 0.56000 0.15159 -0.73200
v 0.88000 0.15159 -0.73200
v 0.56000 0.14000 -0.82000
v 0.88000 0.14000 -0.82000
v 0.56000 0.15159 -0.90800
v 0.88000 0.15159 -0.90800
v 0.56000 0.18555 -0.99000
v 0.88000 0.18555 -0.99000
v 0.56000 0.23958 -1.06042
v 0.88000 0.23958 -1.06042
v 0.56000 0.31000 -1.11445
v 0.88000 0.31000 -1.11445
v 0.56000 0.39200 -1.14841
v 0.88000 0.39200 -1.14841
v 0.56000 0.48000 -1.16000
v 0.88000 0.48000 -1.16000
v 0.56000 0.56800 -1.14841
v 0.88000 0.56800 -1.14841
v 0.56000 0.65000 -1.11445
v 0.88000 0.65000 -1.11445
v 0.56000 0.72042 -1.06042
v 0.88000 0.72042 -1.06042
v 0.56000 0.77445 -0.99000
v 0.88000 0.77445 -0.99000
v 0.56000 0.80841 -0.90800
v 0.88000 0.80841 -0.90800
v 0.72000 0.48000 0.56000
v 0.72000 0.48000 0.88000
v 0.56000 0.82000 0.82000
v 0.88000 0.82000 0.82000
v 0.56000 0.80841 0.90800
v 0.88000 0.80841 0.90800
v 0.56000 0.77445 0.99000
v 0.88000 0.77445 0.99000
v 0.56000 0.72042 1.06042
v 0.88000 0.72042 1.06042
v 0.56000 0.65000 1.11445
v 0.88000 0.65000 1.11445
v 0.56000 0.56800 1.14841
v 0.88000 0.56800 1.14841
v 0.56000 0.48000 1.16000
v 0.88000 0.48000 1.16000
v 0.56000 0.39200 1.14841
v 0.88000 0.39200 1.14841
v 0.56000 0.31000 1.11445
v 0.88000 0.31000 1.11445
v 0.56000 0.23958 1.06042
v 0.88000 0.23958 1.06042
v 0.56000 0.18555 0.99000
v 0.88000 0.18555 0.99000
v 0.56000 0.15159 0.90800
v 0.88000 0.15159 0.90800
v 0.56000 0.14000 0.82000
v 0.88000 0.14000 0.82000
v 0.56000 0.15159 0.73200
v 0.88000 0.15159 0.73200
v 0.56000 0.18555 0.65000
v 0.88000 0.18555 0.65000
v 0.56000 0.23958 0.57958
v 0.88000 0.23958 0.57958
v 0.56000 0.31000 0.52555
v 0.88000 0.31000 0.52555
v 0.56000 0.39200 0.49159
v 0.88000 0.39200 0.49159
v 0.56000 0.48000 0.48000
v 0.88000 0.48000 0.48000
v 0.56000 0.56800 0.49159
v 0.88000 0.56800 0.49159
v 0.56000 0.65000 0.52555
v 0.88000 0.65000 0.52555
v 0.56000 0.72042 0.57958
v 0.88000 0.72042 0.57958
v 0.56000 0.77445 0.65000
v 0.88000 0.77445 0.65000
v 0.56000 0.80841 0.73200
v 0.88000 0.80841 0.73200
v 0.72000 0.48000 0.56000
v 0.72000 0.48000 0.88000
v -0.46000 1.06000 0.72000
v 0.46000 1.06000 0.72000
v 0.46000 1.18000 0.72000
v -0.46000 1.18000 0.72000
v -0.46000 1.06000 0.92000
v 0.46000 1.06000 0.92000
v 0.46000 1.18000 0.92000
v -0.46000 1.18000 0.92000
v -0.62000 0.87000 -0.82000
v 0.62000 0.87000 -0.82000
v 0.62000 1.03000 -0.82000
v -0.62000 1.03000 -0.82000
v -0.62000 0.87000 -0.62000
v 0.62000 0.87000 -0.62000
v 0.62000 1.03000 -0.62000
v -0.62000 1.03000 -0.62000
f 1 2 3
f 1 3 4
f 5 8 7
f 5 7 6
f 1 5 6
f 1 6 2
f 4 3 7
f 4 7 8
f 1 4 8
f 1 8 5
f 2 6 7
f 2 7 3
f 9 10 11
f 9 11 12
f 13 16 15
f 13 15 14
f 9 13 14
f 9 14 10
f 12 11 15
f 12 15 16
f 9 12 16
f 9 16 13
f 10 14 15
f 10 15 11
f 17 19 20
f 17 20 18
f 19 21 22
f 19 22 20
f 21 23 24
f 21 24 22
f 23 25 26
f 23 26 24
f 25 27 28
f 25 28 26
f 27 29 30
f 27 30 28
f 29 31 32
f 29 32 30
f 31 33 34
f 31 34 32
f 33 35 36
f 33 36 34
f 35 37 38
f 35 38 36
f 37 39 40
f 37 40 38
f 39 41 42
f 39 42 40
f 41 43 44
f 41 44 42
f 43 45 46
f 43 46 44
f 45 47 48
f 45 48 46
f 47 49 50
f 47 50 48
f 49 51 52
f 49 52 50
f 51 53 54
f 51 54 52
f 53 55 56
f 53 56 54
f 55 57 58
f 55 58 56
f 57 59 60
f 57 60 58
f 59 61 62
f 59 62 60
f 61 63 64
f 61 64 62
f 63 17 18
f 63 18 64
f 65 19 17
f 66 18 20
f 65 21 19
f 66 20 22
f 65 23 21
f 66 22 24
f 65 25 23
f 66 24 26
f 65 27 25
f 66 26 28
f 65 29 27
f 66 28 30
f 65 31 29
f 66 30 32
f 65 33 31
f 66 32 34
f 65 35 33
f 66 34 36
f 65 37 35
f 66 36 38
f 65 39 37
f 66 38 40
f 65 41 39
f 66 40 42
f 65 43 41
f 66 42 44
f 65 45 43
f 66 44 46
f 65 47 45
f 66 46 48
f 65 49 47
f 66 48 50
f 65 51 49
f 66 50 52
f 65 53 51
f 66 52 54
f 65 55 53
f 66 54 56
f 65 57 55
f 66 56 58
f 65 59 57
f 66 58 60
f 65 61 59
f 66 60 62
f 65 63 61
f 66 62 64
f 65 17 63
f 66 64 18
f 67 69 70
f 67 70 68
f 69 71 72
f 69 72 70
f 71 73 74
f 71 74 72
f 73 75 76
f 73 76 74
f 75 77 78
f 75 78 76
f 77 79 80
f 77 80 78
f 79 81 82
f 79 82 80
f 81 83 84
f 81 84 82
f 83 85 86
f 83 86 84
f 85 87 88
f 85 88 86
f 87 89 90
f 87 90 88
f 89 91 92
f 89 92 90
f 91 93 94
f 91 94 92
f 93 95 96
f 93 96 94
f 95 97 98
f 95 98 96
f 97 99 100
f 97 100 98
f 99 101 102
f 99 102 100
f 101 103 104
f 101 104 102
f 103 105 106
f 103 106 104
f 105 107 108
f 105 108 106
f 107 109 110
f 107 110 108
f 109 111 112
f 109 112 110
f 111 113 114
f 111 114 112
f 113 67 68
f 113 68 114
f 115 69 67
f 116 68 70
f 115 71 69
f 116 70 72
f 115 73 71
f 116 72 74
f 115 75 73
f 116 74 76
f 115 77 75
f 116 76 78
f 115 79 77
f 116 78 80
f 115 81 79
f 116 80 82
f 115 83 81
f 116 82 84
f 115 85 83
f 116 84 86
f 115 87 85
f 116 86 88
f 115 89 87
f 116 88 90
f 115 91 89
f 116 90 92
f 115 93 91
f 116 92 94
f 115 95 93
f 116 94 96
f 115 97 95
f 116 96 98
f 115 99 97
f 116 98 100
f 115 101 99
f 116 100 102
f 115 103 101
f 116 102 104
f 115 105 103
f 116 104 106
f 115 107 105
f 116 106 108
f 115 109 107
f 116 108 110
f 115 111 109
f 116 110 112
f 115 113 111
f 116 112 114
f 115 67 113
f 116 114 68
f 117 119 120
f 117 120 118
f 119 121 122
f 119 122 120
f 121 123 124
f 121 124 122
f 123 125 126
f 123 126 124
f 125 127 128
f 125 128 126
f 127 129 130
f 127 130 128
f 129 131 132
f 129 132 130
f 131 133 134
f 131 134 132
f 133 135 136
f 133 136 134
f 135 137 138
f 135 138 136
f 137 139 140
f 137 140 138
f 139 141 142
f 139 142 140
f 141 143 144
f 141 144 142
f 143 145 146
f 143 146 144
f 145 147 148
f 145 148 146
f 147 149 150
f 147 150 148
f 149 151 152
f 149 152 150
f 151 153 154
f 151 154 152
f 153 155 156
f 153 156 154
f 155 157 158
f 155 158 156
f 157 159 160
f 157 160 158
f 159 161 162
f 159 162 160
f 161 163 164
f 161 164 162
f 163 117 118
f 163 118 164
f 165 119 117
f 166 118 120
f 165 121 119
f 166 120 122
f 165 123 121
f 166 122 124
f 165 125 123
f 166 124 126
f 165 127 125
f 166 126 128
f 165 129 127
f 166 128 130
f 165 131 129
f 166 130 132
f 165 133 131
f 166 132 134
f 165 135 133
f 166 134 136
f 165 137 135
f 166 136 138
f 165 139 137
f 166 138 140
f 165 141 139
f 166 140 142
f 165 143 141
f 166 142 144
f 165 145 143
f 166 144 146
f 165 147 145
f 166 146 148
f 165 149 147
f 166 148 150
f 165 151 149
f 166 150 152
f 165 153 151
f 166 152 154
f 165 155 153
f 166 154 156
f 165 157 155
f 166 156 158
f 165 159 157
f 166 158 160
f 165 161 159
f 166 160 162
f 165 163 161
f 166 162 164
f 165 117 163
f 166 164 118
f 167 169 170
f 167 170 168
f 169 171 172
f 169 172 170
f 171 173 174
f 171 174 172
f 173 175 176
f 173 176 174
f 175 177 178
f 175 178 176
f 177 179 180
f 177 180 178
f 179 181 182
f 179 182 180
f 181 183 184
f 181 184 182
f 183 185 186
f 183 186 184
f 185 187 188
f 185 188 186
f 187 189 190
f 187 190 188
f 189 191 192
f 189 192 190
f 191 193 194
f 191 194 192
f 193 195 196
f 193 196 194
f 195 197 198
f 195 198 196
f 197 199 200
f 197 200 198
f 199 201 202
f 199 202 200
f 201 203 204
f 201 204 202
f 203 205 206
f 203 206 204
f 205 207 208
f 205 208 206
f 207 209 210
f 207 210 208
f 209 211 212
f 209 212 210
f 211 213 214
f 211 214 212
f 213 167 168
f 213 168 214
f 215 169 167
f 216 168 170
f 215 171 169
f 216 170 172
f 215 173 171
f 216 172 174
f 215 175 173
f 216 174 176
f 215 177 175
f 216 176 178
f 215 179 177
f 216 178 180
f 215 181 179
f 216 180 182
f 215 183 181
f 216 182 184
f 215 185 183
f 216 184 186
f 215 187 185
f 216 186 188
f 215 189 187
f 216 188 190
f 215 191 189
f 216 190 192
f 215 193 191
f 216 192 194
f 215 195 193
f 216 194 196
f 215 197 195
f 216 196 198
f 215 199 197
f 216 198 200
f 215 201 199
f 216 200 202
f 215 203 201
f 216 202 204
f 215 205 203
f 216 204 206
f 215 207 205
f 216 206 208
f 215 209 207
f 216 208 210
f 215 211 209
f 216 210 212
f 215 213 211
f 216 212 214
f 215 167 213
f 216 214 168
f 217 218 219
f 217 219 220
f 221 224 223
f 221 223 222
f 217 221 222
f 217 222 218
f 220 219 223
f 220 223 224
f 217 220 224
f 217 224 221
f 218 222 223
f 218 223 219
f 225 226 227
f 225 227 228
f 229 232 231
f 229 231 230
f 225 229 230
f 225 230 226
f 228 227 231
f 228 231 232
f 225 228 232
f 225 232 229
f 226 230 231
f 226 231 227
