# RealStant original static game mesh
v -0.30000 0.22500 -1.28000
v 0.30000 0.22500 -1.28000
v 0.30000 0.33500 -1.28000
v -0.30000 0.33500 -1.28000
v -0.30000 0.22500 1.28000
v 0.30000 0.22500 1.28000
v 0.30000 0.33500 1.28000
v -0.30000 0.33500 1.28000
v -0.32000 0.23000 -0.62000
v -0.20000 0.23000 -0.62000
v -0.32000 0.22625 -0.59153
v -0.20000 0.22625 -0.59153
v -0.32000 0.21526 -0.56500
v -0.20000 0.21526 -0.56500
v -0.32000 0.19778 -0.54222
v -0.20000 0.19778 -0.54222
v -0.32000 0.17500 -0.52474
v -0.20000 0.17500 -0.52474
v -0.32000 0.14847 -0.51375
v -0.20000 0.14847 -0.51375
v -0.32000 0.12000 -0.51000
v -0.20000 0.12000 -0.51000
v -0.32000 0.09153 -0.51375
v -0.20000 0.09153 -0.51375
v -0.32000 0.06500 -0.52474
v -0.20000 0.06500 -0.52474
v -0.32000 0.04222 -0.54222
v -0.20000 0.04222 -0.54222
v -0.32000 0.02474 -0.56500
v -0.20000 0.02474 -0.56500
v -0.32000 0.01375 -0.59153
v -0.20000 0.01375 -0.59153
v -0.32000 0.01000 -0.62000
v -0.20000 0.01000 -0.62000
v -0.32000 0.01375 -0.64847
v -0.20000 0.01375 -0.64847
v -0.32000 0.02474 -0.67500
v -0.20000 0.02474 -0.67500
v -0.32000 0.04222 -0.69778
v -0.20000 0.04222 -0.69778
v -0.32000 0.06500 -0.71526
v -0.20000 0.06500 -0.71526
v -0.32000 0.09153 -0.72625
v -0.20000 0.09153 -0.72625
v -0.32000 0.12000 -0.73000
v -0.20000 0.12000 -0.73000
v -0.32000 0.14847 -0.72625
v -0.20000 0.14847 -0.72625
v -0.32000 0.17500 -0.71526
v -0.20000 0.17500 -0.71526
v -0.32000 0.19778 -0.69778
v -0.20000 0.19778 -0.69778
v -0.32000 0.21526 -0.67500
v -0.20000 0.21526 -0.67500
v -0.32000 0.22625 -0.64847
v -0.20000 0.22625 -0.64847
v -0.26000 0.12000 -0.32000
v -0.26000 0.12000 -0.20000
v -0.32000 0.23000 0.62000
v -0.20000 0.23000 0.62000
v -0.32000 0.22625 0.64847
v -0.20000 0.22625 0.64847
v -0.32000 0.21526 0.67500
v -0.20000 0.21526 0.67500
v -0.32000 0.19778 0.69778
v -0.20000 0.19778 0.69778
v -0.32000 0.17500 0.71526
v -0.20000 0.17500 0.71526
v -0.32000 0.14847 0.72625
v -0.20000 0.14847 0.72625
v -0.32000 0.12000 0.73000
v -0.20000 0.12000 0.73000
v -0.32000 0.09153 0.72625
v -0.20000 0.09153 0.72625
v -0.32000 0.06500 0.71526
v -0.20000 0.06500 0.71526
v -0.32000 0.04222 0.69778
v -0.20000 0.04222 0.69778
v -0.32000 0.02474 0.67500
v -0.20000 0.02474 0.67500
v -0.32000 0.01375 0.64847
v -0.20000 0.01375 0.64847
v -0.32000 0.01000 0.62000
v -0.20000 0.01000 0.62000
v -0.32000 0.01375 0.59153
v -0.20000 0.01375 0.59153
v -0.32000 0.02474 0.56500
v -0.20000 0.02474 0.56500
v -0.32000 0.04222 0.54222
v -0.20000 0.04222 0.54222
v -0.32000 0.06500 0.52474
v -0.20000 0.06500 0.52474
v -0.32000 0.09153 0.51375
v -0.20000 0.09153 0.51375
v -0.32000 0.12000 0.51000
v -0.20000 0.12000 0.51000
v -0.32000 0.14847 0.51375
v -0.20000 0.14847 0.51375
v -0.32000 0.17500 0.52474
v -0.20000 0.17500 0.52474
v -0.32000 0.19778 0.54222
v -0.20000 0.19778 0.54222
v -0.32000 0.21526 0.56500
v -0.20000 0.21526 0.56500
v -0.32000 0.22625 0.59153
v -0.20000 0.22625 0.59153
v -0.26000 0.12000 -0.32000
v -0.26000 0.12000 -0.20000
v 0.20000 0.23000 -0.62000
v 0.32000 0.23000 -0.62000
v 0.20000 0.22625 -0.59153
v 0.32000 0.22625 -0.59153
v 0.20000 0.21526 -0.56500
v 0.32000 0.21526 -0.56500
v 0.20000 0.19778 -0.54222
v 0.32000 0.19778 -0.54222
v 0.20000 0.17500 -0.52474
v 0.32000 0.17500 -0.52474
v 0.20000 0.14847 -0.51375
v 0.32000 0.14847 -0.51375
v 0.20000 0.12000 -0.51000
v 0.32000 0.12000 -0.51000
v 0.20000 0.09153 -0.51375
v 0.32000 0.09153 -0.51375
v 0.20000 0.06500 -0.52474
v 0.32000 0.06500 -0.52474
v 0.20000 0.04222 -0.54222
v 0.32000 0.04222 -0.54222
v 0.20000 0.02474 -0.56500
v 0.32000 0.02474 -0.56500
v 0.20000 0.01375 -0.59153
v 0.32000 0.01375 -0.59153
v 0.20000 0.01000 -0.62000
v 0.32000 0.01000 -0.62000
v 0.20000 0.01375 -0.64847
v 0.32000 0.01375 -0.64847
v 0.20000 0.02474 -0.67500
v 0.32000 0.02474 -0.67500
v 0.20000 0.04222 -0.69778
v 0.32000 0.04222 -0.69778
v 0.20000 0.06500 -0.71526
v 0.32000 0.06500 -0.71526
v 0.20000 0.09153 -0.72625
v 0.32000 0.09153 -0.72625
v 0.20000 0.12000 -0.73000
v 0.32000 0.12000 -0.73000
v 0.20000 0.14847 -0.72625
v 0.32000 0.14847 -0.72625
v 0.20000 0.17500 -0.71526
v 0.32000 0.17500 -0.71526
v 0.20000 0.19778 -0.69778
v 0.32000 0.19778 -0.69778
v 0.20000 0.21526 -0.67500
v 0.32000 0.21526 -0.67500
v 0.20000 0.22625 -0.64847
v 0.32000 0.22625 -0.64847
v 0.26000 0.12000 0.20000
v 0.26000 0.12000 0.32000
v 0.20000 0.23000 0.62000
v 0.32000 0.23000 0.62000
v 0.20000 0.22625 0.64847
v 0.32000 0.22625 0.64847
v 0.20000 0.21526 0.67500
v 0.32000 0.21526 0.67500
v 0.20000 0.19778 0.69778
v 0.32000 0.19778 0.69778
v 0.20000 0.17500 0.71526
v 0.32000 0.17500 0.71526
v 0.20000 0.14847 0.72625
v 0.32000 0.14847 0.72625
v 0.20000 0.12000 0.73000
v 0.32000 0.12000 0.73000
v 0.20000 0.09153 0.72625
v 0.32000 0.09153 0.72625
v 0.20000 0.06500 0.71526
v 0.32000 0.06500 0.71526
v 0.20000 0.04222 0.69778
v 0.32000 0.04222 0.69778
v 0.20000 0.02474 0.67500
v 0.32000 0.02474 0.67500
v 0.20000 0.01375 0.64847
v 0.32000 0.01375 0.64847
v 0.20000 0.01000 0.62000
v 0.32000 0.01000 0.62000
v 0.20000 0.01375 0.59153
v 0.32000 0.01375 0.59153
v 0.20000 0.02474 0.56500
v 0.32000 0.02474 0.56500
v 0.20000 0.04222 0.54222
v 0.32000 0.04222 0.54222
v 0.20000 0.06500 0.52474
v 0.32000 0.06500 0.52474
v 0.20000 0.09153 0.51375
v 0.32000 0.09153 0.51375
v 0.20000 0.12000 0.51000
v 0.32000 0.12000 0.51000
v 0.20000 0.14847 0.51375
v 0.32000 0.14847 0.51375
v 0.20000 0.17500 0.52474
v 0.32000 0.17500 0.52474
v 0.20000 0.19778 0.54222
v 0.32000 0.19778 0.54222
v 0.20000 0.21526 0.56500
v 0.32000 0.21526 0.56500
v 0.20000 0.22625 0.59153
v 0.32000 0.22625 0.59153
v 0.26000 0.12000 0.20000
v 0.26000 0.12000 0.32000
f 1 2 3
f 1 3 4
f 5 8 7
f 5 7 6
f 1 5 6
f 1 6 2
f 4 3 7
f 4 7 8
f 1 4 8
f 1 8 5
f 2 6 7
f 2 7 3
f 9 11 12
f 9 12 10
f 11 13 14
f 11 14 12
f 13 15 16
f 13 16 14
f 15 17 18
f 15 18 16
f 17 19 20
f 17 20 18
f 19 21 22
f 19 22 20
f 21 23 24
f 21 24 22
f 23 25 26
f 23 26 24
f 25 27 28
f 25 28 26
f 27 29 30
f 27 30 28
f 29 31 32
f 29 32 30
f 31 33 34
f 31 34 32
f 33 35 36
f 33 36 34
f 35 37 38
f 35 38 36
f 37 39 40
f 37 40 38
f 39 41 42
f 39 42 40
f 41 43 44
f 41 44 42
f 43 45 46
f 43 46 44
f 45 47 48
f 45 48 46
f 47 49 50
f 47 50 48
f 49 51 52
f 49 52 50
f 51 53 54
f 51 54 52
f 53 55 56
f 53 56 54
f 55 9 10
f 55 10 56
f 57 11 9
f 58 10 12
f 57 13 11
f 58 12 14
f 57 15 13
f 58 14 16
f 57 17 15
f 58 16 18
f 57 19 17
f 58 18 20
f 57 21 19
f 58 20 22
f 57 23 21
f 58 22 24
f 57 25 23
f 58 24 26
f 57 27 25
f 58 26 28
f 57 29 27
f 58 28 30
f 57 31 29
f 58 30 32
f 57 33 31
f 58 32 34
f 57 35 33
f 58 34 36
f 57 37 35
f 58 36 38
f 57 39 37
f 58 38 40
f 57 41 39
f 58 40 42
f 57 43 41
f 58 42 44
f 57 45 43
f 58 44 46
f 57 47 45
f 58 46 48
f 57 49 47
f 58 48 50
f 57 51 49
f 58 50 52
f 57 53 51
f 58 52 54
f 57 55 53
f 58 54 56
f 57 9 55
f 58 56 10
f 59 61 62
f 59 62 60
f 61 63 64
f 61 64 62
f 63 65 66
f 63 66 64
f 65 67 68
f 65 68 66
f 67 69 70
f 67 70 68
f 69 71 72
f 69 72 70
f 71 73 74
f 71 74 72
f 73 75 76
f 73 76 74
f 75 77 78
f 75 78 76
f 77 79 80
f 77 80 78
f 79 81 82
f 79 82 80
f 81 83 84
f 81 84 82
f 83 85 86
f 83 86 84
f 85 87 88
f 85 88 86
f 87 89 90
f 87 90 88
f 89 91 92
f 89 92 90
f 91 93 94
f 91 94 92
f 93 95 96
f 93 96 94
f 95 97 98
f 95 98 96
f 97 99 100
f 97 100 98
f 99 101 102
f 99 102 100
f 101 103 104
f 101 104 102
f 103 105 106
f 103 106 104
f 105 59 60
f 105 60 106
f 107 61 59
f 108 60 62
f 107 63 61
f 108 62 64
f 107 65 63
f 108 64 66
f 107 67 65
f 108 66 68
f 107 69 67
f 108 68 70
f 107 71 69
f 108 70 72
f 107 73 71
f 108 72 74
f 107 75 73
f 108 74 76
f 107 77 75
f 108 76 78
f 107 79 77
f 108 78 80
f 107 81 79
f 108 80 82
f 107 83 81
f 108 82 84
f 107 85 83
f 108 84 86
f 107 87 85
f 108 86 88
f 107 89 87
f 108 88 90
f 107 91 89
f 108 90 92
f 107 93 91
f 108 92 94
f 107 95 93
f 108 94 96
f 107 97 95
f 108 96 98
f 107 99 97
f 108 98 100
f 107 101 99
f 108 100 102
f 107 103 101
f 108 102 104
f 107 105 103
f 108 104 106
f 107 59 105
f 108 106 60
f 109 111 112
f 109 112 110
f 111 113 114
f 111 114 112
f 113 115 116
f 113 116 114
f 115 117 118
f 115 118 116
f 117 119 120
f 117 120 118
f 119 121 122
f 119 122 120
f 121 123 124
f 121 124 122
f 123 125 126
f 123 126 124
f 125 127 128
f 125 128 126
f 127 129 130
f 127 130 128
f 129 131 132
f 129 132 130
f 131 133 134
f 131 134 132
f 133 135 136
f 133 136 134
f 135 137 138
f 135 138 136
f 137 139 140
f 137 140 138
f 139 141 142
f 139 142 140
f 141 143 144
f 141 144 142
f 143 145 146
f 143 146 144
f 145 147 148
f 145 148 146
f 147 149 150
f 147 150 148
f 149 151 152
f 149 152 150
f 151 153 154
f 151 154 152
f 153 155 156
f 153 156 154
f 155 109 110
f 155 110 156
f 157 111 109
f 158 110 112
f 157 113 111
f 158 112 114
f 157 115 113
f 158 114 116
f 157 117 115
f 158 116 118
f 157 119 117
f 158 118 120
f 157 121 119
f 158 120 122
f 157 123 121
f 158 122 124
f 157 125 123
f 158 124 126
f 157 127 125
f 158 126 128
f 157 129 127
f 158 128 130
f 157 131 129
f 158 130 132
f 157 133 131
f 158 132 134
f 157 135 133
f 158 134 136
f 157 137 135
f 158 136 138
f 157 139 137
f 158 138 140
f 157 141 139
f 158 140 142
f 157 143 141
f 158 142 144
f 157 145 143
f 158 144 146
f 157 147 145
f 158 146 148
f 157 149 147
f 158 148 150
f 157 151 149
f 158 150 152
f 157 153 151
f 158 152 154
f 157 155 153
f 158 154 156
f 157 109 155
f 158 156 110
f 159 161 162
f 159 162 160
f 161 163 164
f 161 164 162
f 163 165 166
f 163 166 164
f 165 167 168
f 165 168 166
f 167 169 170
f 167 170 168
f 169 171 172
f 169 172 170
f 171 173 174
f 171 174 172
f 173 175 176
f 173 176 174
f 175 177 178
f 175 178 176
f 177 179 180
f 177 180 178
f 179 181 182
f 179 182 180
f 181 183 184
f 181 184 182
f 183 185 186
f 183 186 184
f 185 187 188
f 185 188 186
f 187 189 190
f 187 190 188
f 189 191 192
f 189 192 190
f 191 193 194
f 191 194 192
f 193 195 196
f 193 196 194
f 195 197 198
f 195 198 196
f 197 199 200
f 197 200 198
f 199 201 202
f 199 202 200
f 201 203 204
f 201 204 202
f 203 205 206
f 203 206 204
f 205 159 160
f 205 160 206
f 207 161 159
f 208 160 162
f 207 163 161
f 208 162 164
f 207 165 163
f 208 164 166
f 207 167 165
f 208 166 168
f 207 169 167
f 208 168 170
f 207 171 169
f 208 170 172
f 207 173 171
f 208 172 174
f 207 175 173
f 208 174 176
f 207 177 175
f 208 176 178
f 207 179 177
f 208 178 180
f 207 181 179
f 208 180 182
f 207 183 181
f 208 182 184
f 207 185 183
f 208 184 186
f 207 187 185
f 208 186 188
f 207 189 187
f 208 188 190
f 207 191 189
f 208 190 192
f 207 193 191
f 208 192 194
f 207 195 193
f 208 194 196
f 207 197 195
f 208 196 198
f 207 199 197
f 208 198 200
f 207 201 199
f 208 200 202
f 207 203 201
f 208 202 204
f 207 205 203
f 208 204 206
f 207 159 205
f 208 206 160
