# RealStant original static game mesh
v 0.20000 0.10000 0.00000
v 0.20000 1.90000 0.00000
v 0.17321 0.10000 0.10000
v 0.17321 1.90000 0.10000
v 0.10000 0.10000 0.17321
v 0.10000 1.90000 0.17321
v 0.00000 0.10000 0.20000
v 0.00000 1.90000 0.20000
v -0.10000 0.10000 0.17321
v -0.10000 1.90000 0.17321
v -0.17321 0.10000 0.10000
v -0.17321 1.90000 0.10000
v -0.20000 0.10000 0.00000
v -0.20000 1.90000 0.00000
v -0.17321 0.10000 -0.10000
v -0.17321 1.90000 -0.10000
v -0.10000 0.10000 -0.17321
v -0.10000 1.90000 -0.17321
v -0.00000 0.10000 -0.20000
v -0.00000 1.90000 -0.20000
v 0.10000 0.10000 -0.17321
v 0.10000 1.90000 -0.17321
v 0.17321 0.10000 -0.10000
v 0.17321 1.90000 -0.10000
v 0.00000 1.00000 0.10000
v 0.00000 1.00000 1.90000
v 1.05000 1.20000 0.00000
v 1.05000 2.90000 0.00000
v 0.97007 1.20000 0.40182
v 0.97007 2.90000 0.40182
v 0.74246 1.20000 0.74246
v 0.74246 2.90000 0.74246
v 0.40182 1.20000 0.97007
v 0.40182 2.90000 0.97007
v 0.00000 1.20000 1.05000
v 0.00000 2.90000 1.05000
v -0.40182 1.20000 0.97007
v -0.40182 2.90000 0.97007
v -0.74246 1.20000 0.74246
v -0.74246 2.90000 0.74246
v -0.97007 1.20000 0.40182
v -0.97007 2.90000 0.40182
v -1.05000 1.20000 0.00000
v -1.05000 2.90000 0.00000
v -0.97007 1.20000 -0.40182
v -0.97007 2.90000 -0.40182
v -0.74246 1.20000 -0.74246
v -0.74246 2.90000 -0.74246
v -0.40182 1.20000 -0.97007
v -0.40182 2.90000 -0.97007
v -0.00000 1.20000 -1.05000
v -0.00000 2.90000 -1.05000
v 0.40182 1.20000 -0.97007
v 0.40182 2.90000 -0.97007
v 0.74246 1.20000 -0.74246
v 0.74246 2.90000 -0.74246
v 0.97007 1.20000 -0.40182
v 0.97007 2.90000 -0.40182
v 0.00000 2.05000 1.20000
v 0.00000 2.05000 2.90000
v 0.72000 2.15000 0.00000
v 0.72000 3.45000 0.00000
v 0.66519 2.15000 0.27553
v 0.66519 3.45000 0.27553
v 0.50912 2.15000 0.50912
v 0.50912 3.45000 0.50912
v 0.27553 2.15000 0.66519
v 0.27553 3.45000 0.66519
v 0.00000 2.15000 0.72000
v 0.00000 3.45000 0.72000
v -0.27553 2.15000 0.66519
v -0.27553 3.45000 0.66519
v -0.50912 2.15000 0.50912
v -0.50912 3.45000 0.50912
v -0.66519 2.15000 0.27553
v -0.66519 3.45000 0.27553
v -0.72000 2.15000 0.00000
v -0.72000 3.45000 0.00000
v -0.66519 2.15000 -0.27553
v -0.66519 3.45000 -0.27553
v -0.50912 2.15000 -0.50912
v -0.50912 3.45000 -0.50912
v -0.27553 2.15000 -0.66519
v -0.27553 3.45000 -0.66519
v -0.00000 2.15000 -0.72000
v -0.00000 3.45000 -0.72000
v 0.27553 2.15000 -0.66519
v 0.27553 3.45000 -0.66519
v 0.50912 2.15000 -0.50912
v 0.50912 3.45000 -0.50912
v 0.66519 2.15000 -0.27553
v 0.66519 3.45000 -0.27553
v 0.00000 2.80000 2.15000
v 0.00000 2.80000 3.45000
f 1 3 4
f 1 4 2
f 3 5 6
f 3 6 4
f 5 7 8
f 5 8 6
f 7 9 10
f 7 10 8
f 9 11 12
f 9 12 10
f 11 13 14
f 11 14 12
f 13 15 16
f 13 16 14
f 15 17 18
f 15 18 16
f 17 19 20
f 17 20 18
f 19 21 22
f 19 22 20
f 21 23 24
f 21 24 22
f 23 1 2
f 23 2 24
f 25 3 1
f 26 2 4
f 25 5 3
f 26 4 6
f 25 7 5
f 26 6 8
f 25 9 7
f 26 8 10
f 25 11 9
f 26 10 12
f 25 13 11
f 26 12 14
f 25 15 13
f 26 14 16
f 25 17 15
f 26 16 18
f 25 19 17
f 26 18 20
f 25 21 19
f 26 20 22
f 25 23 21
f 26 22 24
f 25 1 23
f 26 24 2
f 27 29 30
f 27 30 28
f 29 31 32
f 29 32 30
f 31 33 34
f 31 34 32
f 33 35 36
f 33 36 34
f 35 37 38
f 35 38 36
f 37 39 40
f 37 40 38
f 39 41 42
f 39 42 40
f 41 43 44
f 41 44 42
f 43 45 46
f 43 46 44
f 45 47 48
f 45 48 46
f 47 49 50
f 47 50 48
f 49 51 52
f 49 52 50
f 51 53 54
f 51 54 52
f 53 55 56
f 53 56 54
f 55 57 58
f 55 58 56
f 57 27 28
f 57 28 58
f 59 29 27
f 60 28 30
f 59 31 29
f 60 30 32
f 59 33 31
f 60 32 34
f 59 35 33
f 60 34 36
f 59 37 35
f 60 36 38
f 59 39 37
f 60 38 40
f 59 41 39
f 60 40 42
f 59 43 41
f 60 42 44
f 59 45 43
f 60 44 46
f 59 47 45
f 60 46 48
f 59 49 47
f 60 48 50
f 59 51 49
f 60 50 52
f 59 53 51
f 60 52 54
f 59 55 53
f 60 54 56
f 59 57 55
f 60 56 58
f 59 27 57
f 60 58 28
f 61 63 64
f 61 64 62
f 63 65 66
f 63 66 64
f 65 67 68
f 65 68 66
f 67 69 70
f 67 70 68
f 69 71 72
f 69 72 70
f 71 73 74
f 71 74 72
f 73 75 76
f 73 76 74
f 75 77 78
f 75 78 76
f 77 79 80
f 77 80 78
f 79 81 82
f 79 82 80
f 81 83 84
f 81 84 82
f 83 85 86
f 83 86 84
f 85 87 88
f 85 88 86
f 87 89 90
f 87 90 88
f 89 91 92
f 89 92 90
f 91 61 62
f 91 62 92
f 93 63 61
f 94 62 64
f 93 65 63
f 94 64 66
f 93 67 65
f 94 66 68
f 93 69 67
f 94 68 70
f 93 71 69
f 94 70 72
f 93 73 71
f 94 72 74
f 93 75 73
f 94 74 76
f 93 77 75
f 94 76 78
f 93 79 77
f 94 78 80
f 93 81 79
f 94 80 82
f 93 83 81
f 94 82 84
f 93 85 83
f 94 84 86
f 93 87 85
f 94 86 88
f 93 89 87
f 94 88 90
f 93 91 89
f 94 90 92
f 93 61 91
f 94 92 62
