# RealStant original static game mesh
v -3.00000 0.00000 -1.40000
v 3.00000 0.00000 -1.40000
v 3.00000 0.36000 -1.40000
v -3.00000 0.36000 -1.40000
v -3.00000 0.00000 1.40000
v 3.00000 0.00000 1.40000
v 3.00000 0.36000 1.40000
v -3.00000 0.36000 1.40000
v -2.70000 0.34000 -1.20000
v 2.70000 0.34000 -1.20000
v 2.70000 0.42000 -1.20000
v -2.70000 0.42000 -1.20000
v -2.70000 0.34000 1.20000
v 2.70000 0.34000 1.20000
v 2.70000 0.42000 1.20000
v -2.70000 0.42000 1.20000
f 1 2 3
f 1 3 4
f 5 8 7
f 5 7 6
f 1 5 6
f 1 6 2
f 4 3 7
f 4 7 8
f 1 4 8
f 1 8 5
f 2 6 7
f 2 7 3
f 9 10 11
f 9 11 12
f 13 16 15
f 13 15 14
f 9 13 14
f 9 14 10
f 12 11 15
f 12 15 16
f 9 12 16
f 9 16 13
f 10 14 15
f 10 15 11
