# RealStant original static game mesh
v 0.07000 0.75000 -2.80000
v 0.07000 0.75000 2.80000
v 0.06467 0.77679 -2.80000
v 0.06467 0.77679 2.80000
v 0.04950 0.79950 -2.80000
v 0.04950 0.79950 2.80000
v 0.02679 0.81467 -2.80000
v 0.02679 0.81467 2.80000
v 0.00000 0.82000 -2.80000
v 0.00000 0.82000 2.80000
v -0.02679 0.81467 -2.80000
v -0.02679 0.81467 2.80000
v -0.04950 0.79950 -2.80000
v -0.04950 0.79950 2.80000
v -0.06467 0.77679 -2.80000
v -0.06467 0.77679 2.80000
v -0.07000 0.75000 -2.80000
v -0.07000 0.75000 2.80000
v -0.06467 0.72321 -2.80000
v -0.06467 0.72321 2.80000
v -0.04950 0.70050 -2.80000
v -0.04950 0.70050 2.80000
v -0.02679 0.68533 -2.80000
v -0.02679 0.68533 2.80000
v -0.00000 0.68000 -2.80000
v -0.00000 0.68000 2.80000
v 0.02679 0.68533 -2.80000
v 0.02679 0.68533 2.80000
v 0.04950 0.70050 -2.80000
v 0.04950 0.70050 2.80000
v 0.06467 0.72321 -2.80000
v 0.06467 0.72321 2.80000
v 0.00000 0.75000 -2.80000
v 0.00000 0.75000 2.80000
v 0.06000 0.00000 -2.45000
v 0.06000 0.76000 -2.45000
v 0.05543 0.00000 -2.42704
v 0.05543 0.76000 -2.42704
v 0.04243 0.00000 -2.40757
v 0.04243 0.76000 -2.40757
v 0.02296 0.00000 -2.39457
v 0.02296 0.76000 -2.39457
v 0.00000 0.00000 -2.39000
v 0.00000 0.76000 -2.39000
v -0.02296 0.00000 -2.39457
v -0.02296 0.76000 -2.39457
v -0.04243 0.00000 -2.40757
v -0.04243 0.76000 -2.40757
v -0.05543 0.00000 -2.42704
v -0.05543 0.76000 -2.42704
v -0.06000 0.00000 -2.45000
v -0.06000 0.76000 -2.45000
v -0.05543 0.00000 -2.47296
v -0.05543 0.76000 -2.47296
v -0.04243 0.00000 -2.49243
v -0.04243 0.76000 -2.49243
v -0.02296 0.00000 -2.50543
v -0.02296 0.76000 -2.50543
v -0.00000 0.00000 -2.51000
v -0.00000 0.76000 -2.51000
v 0.02296 0.00000 -2.50543
v 0.02296 0.76000 -2.50543
v 0.04243 0.00000 -2.49243
v 0.04243 0.76000 -2.49243
v 0.05543 0.00000 -2.47296
v 0.05543 0.76000 -2.47296
v 0.00000 0.38000 0.00000
v 0.00000 0.38000 0.76000
v 0.06000 0.00000 2.45000
v 0.06000 0.76000 2.45000
v 0.05543 0.00000 2.47296
v 0.05543 0.76000 2.47296
v 0.04243 0.00000 2.49243
v 0.04243 0.76000 2.49243
v 0.02296 0.00000 2.50543
v 0.02296 0.76000 2.50543
v 0.00000 0.00000 2.51000
v 0.00000 0.76000 2.51000
v -0.02296 0.00000 2.50543
v -0.02296 0.76000 2.50543
v -0.04243 0.00000 2.49243
v -0.04243 0.76000 2.49243
v -0.05543 0.00000 2.47296
v -0.05543 0.76000 2.47296
v -0.06000 0.00000 2.45000
v -0.06000 0.76000 2.45000
v -0.05543 0.00000 2.42704
v -0.05543 0.76000 2.42704
v -0.04243 0.00000 2.40757
v -0.04243 0.76000 2.40757
v -0.02296 0.00000 2.39457
v -0.02296 0.76000 2.39457
v -0.00000 0.00000 2.39000
v -0.00000 0.76000 2.39000
v 0.02296 0.00000 2.39457
v 0.02296 0.76000 2.39457
v 0.04243 0.00000 2.40757
v 0.04243 0.76000 2.40757
v 0.05543 0.00000 2.42704
v 0.05543 0.76000 2.42704
v 0.00000 0.38000 0.00000
v 0.00000 0.38000 0.76000
f 1 3 4
f 1 4 2
f 3 5 6
f 3 6 4
f 5 7 8
f 5 8 6
f 7 9 10
f 7 10 8
f 9 11 12
f 9 12 10
f 11 13 14
f 11 14 12
f 13 15 16
f 13 16 14
f 15 17 18
f 15 18 16
f 17 19 20
f 17 20 18
f 19 21 22
f 19 22 20
f 21 23 24
f 21 24 22
f 23 25 26
f 23 26 24
f 25 27 28
f 25 28 26
f 27 29 30
f 27 30 28
f 29 31 32
f 29 32 30
f 31 1 2
f 31 2 32
f 33 3 1
f 34 2 4
f 33 5 3
f 34 4 6
f 33 7 5
f 34 6 8
f 33 9 7
f 34 8 10
f 33 11 9
f 34 10 12
f 33 13 11
f 34 12 14
f 33 15 13
f 34 14 16
f 33 17 15
f 34 16 18
f 33 19 17
f 34 18 20
f 33 21 19
f 34 20 22
f 33 23 21
f 34 22 24
f 33 25 23
f 34 24 26
f 33 27 25
f 34 26 28
f 33 29 27
f 34 28 30
f 33 31 29
f 34 30 32
f 33 1 31
f 34 32 2
f 35 37 38
f 35 38 36
f 37 39 40
f 37 40 38
f 39 41 42
f 39 42 40
f 41 43 44
f 41 44 42
f 43 45 46
f 43 46 44
f 45 47 48
f 45 48 46
f 47 49 50
f 47 50 48
f 49 51 52
f 49 52 50
f 51 53 54
f 51 54 52
f 53 55 56
f 53 56 54
f 55 57 58
f 55 58 56
f 57 59 60
f 57 60 58
f 59 61 62
f 59 62 60
f 61 63 64
f 61 64 62
f 63 65 66
f 63 66 64
f 65 35 36
f 65 36 66
f 67 37 35
f 68 36 38
f 67 39 37
f 68 38 40
f 67 41 39
f 68 40 42
f 67 43 41
f 68 42 44
f 67 45 43
f 68 44 46
f 67 47 45
f 68 46 48
f 67 49 47
f 68 48 50
f 67 51 49
f 68 50 52
f 67 53 51
f 68 52 54
f 67 55 53
f 68 54 56
f 67 57 55
f 68 56 58
f 67 59 57
f 68 58 60
f 67 61 59
f 68 60 62
f 67 63 61
f 68 62 64
f 67 65 63
f 68 64 66
f 67 35 65
f 68 66 36
f 69 71 72
f 69 72 70
f 71 73 74
f 71 74 72
f 73 75 76
f 73 76 74
f 75 77 78
f 75 78 76
f 77 79 80
f 77 80 78
f 79 81 82
f 79 82 80
f 81 83 84
f 81 84 82
f 83 85 86
f 83 86 84
f 85 87 88
f 85 88 86
f 87 89 90
f 87 90 88
f 89 91 92
f 89 92 90
f 91 93 94
f 91 94 92
f 93 95 96
f 93 96 94
f 95 97 98
f 95 98 96
f 97 99 100
f 97 100 98
f 99 69 70
f 99 70 100
f 101 71 69
f 102 70 72
f 101 73 71
f 102 72 74
f 101 75 73
f 102 74 76
f 101 77 75
f 102 76 78
f 101 79 77
f 102 78 80
f 101 81 79
f 102 80 82
f 101 83 81
f 102 82 84
f 101 85 83
f 102 84 86
f 101 87 85
f 102 86 88
f 101 89 87
f 102 88 90
f 101 91 89
f 102 90 92
f 101 93 91
f 102 92 94
f 101 95 93
f 102 94 96
f 101 97 95
f 102 96 98
f 101 99 97
f 102 98 100
f 101 69 99
f 102 100 70
