# RealStant original static game mesh
v -1.50000 0.08000 -1.50000
v 1.50000 0.08000 -1.50000
v 1.50000 0.24000 -1.50000
v -1.50000 0.24000 -1.50000
v -1.50000 0.08000 1.50000
v 1.50000 0.08000 1.50000
v 1.50000 0.24000 1.50000
v -1.50000 0.24000 1.50000
v -1.30000 0.36000 -1.30000
v 1.30000 0.36000 -1.30000
v 1.30000 0.48000 -1.30000
v -1.30000 0.48000 -1.30000
v -1.30000 0.36000 1.30000
v 1.30000 0.36000 1.30000
v 1.30000 0.48000 1.30000
v -1.30000 0.48000 1.30000
v -1.07000 0.00000 -1.15000
v -1.07000 0.70000 -1.15000
v -1.08072 0.00000 -1.11000
v -1.08072 0.70000 -1.11000
v -1.11000 0.00000 -1.08072
v -1.11000 0.70000 -1.08072
v -1.15000 0.00000 -1.07000
v -1.15000 0.70000 -1.07000
v -1.19000 0.00000 -1.08072
v -1.19000 0.70000 -1.08072
v -1.21928 0.00000 -1.11000
v -1.21928 0.70000 -1.11000
v -1.23000 0.00000 -1.15000
v -1.23000 0.70000 -1.15000
v -1.21928 0.00000 -1.19000
v -1.21928 0.70000 -1.19000
v -1.19000 0.00000 -1.21928
v -1.19000 0.70000 -1.21928
v -1.15000 0.00000 -1.23000
v -1.15000 0.70000 -1.23000
v -1.11000 0.00000 -1.21928
v -1.11000 0.70000 -1.21928
v -1.08072 0.00000 -1.19000
v -1.08072 0.70000 -1.19000
v -1.15000 0.35000 0.00000
v -1.15000 0.35000 0.70000
v 1.23000 0.00000 -1.15000
v 1.23000 0.70000 -1.15000
v 1.21928 0.00000 -1.11000
v 1.21928 0.70000 -1.11000
v 1.19000 0.00000 -1.08072
v 1.19000 0.70000 -1.08072
v 1.15000 0.00000 -1.07000
v 1.15000 0.70000 -1.07000
v 1.11000 0.00000 -1.08072
v 1.11000 0.70000 -1.08072
v 1.08072 0.00000 -1.11000
v 1.08072 0.70000 -1.11000
v 1.07000 0.00000 -1.15000
v 1.07000 0.70000 -1.15000
v 1.08072 0.00000 -1.19000
v 1.08072 0.70000 -1.19000
v 1.11000 0.00000 -1.21928
v 1.11000 0.70000 -1.21928
v 1.15000 0.00000 -1.23000
v 1.15000 0.70000 -1.23000
v 1.19000 0.00000 -1.21928
v 1.19000 0.70000 -1.21928
v 1.21928 0.00000 -1.19000
v 1.21928 0.70000 -1.19000
v 1.15000 0.35000 0.00000
v 1.15000 0.35000 0.70000
v -1.07000 0.00000 1.15000
v -1.07000 0.70000 1.15000
v -1.08072 0.00000 1.19000
v -1.08072 0.70000 1.19000
v -1.11000 0.00000 1.21928
v -1.11000 0.70000 1.21928
v -1.15000 0.00000 1.23000
v -1.15000 0.70000 1.23000
v -1.19000 0.00000 1.21928
v -1.19000 0.70000 1.21928
v -1.21928 0.00000 1.19000
v -1.21928 0.70000 1.19000
v -1.23000 0.00000 1.15000
v -1.23000 0.70000 1.15000
v -1.21928 0.00000 1.11000
v -1.21928 0.70000 1.11000
v -1.19000 0.00000 1.08072
v -1.19000 0.70000 1.08072
v -1.15000 0.00000 1.07000
v -1.15000 0.70000 1.07000
v -1.11000 0.00000 1.08072
v -1.11000 0.70000 1.08072
v -1.08072 0.00000 1.11000
v -1.08072 0.70000 1.11000
v -1.15000 0.35000 0.00000
v -1.15000 0.35000 0.70000
v 1.23000 0.00000 1.15000
v 1.23000 0.70000 1.15000
v 1.21928 0.00000 1.19000
v 1.21928 0.70000 1.19000
v 1.19000 0.00000 1.21928
v 1.19000 0.70000 1.21928
v 1.15000 0.00000 1.23000
v 1.15000 0.70000 1.23000
v 1.11000 0.00000 1.21928
v 1.11000 0.70000 1.21928
v 1.08072 0.00000 1.19000
v 1.08072 0.70000 1.19000
v 1.07000 0.00000 1.15000
v 1.07000 0.70000 1.15000
v 1.08072 0.00000 1.11000
v 1.08072 0.70000 1.11000
v 1.11000 0.00000 1.08072
v 1.11000 0.70000 1.08072
v 1.15000 0.00000 1.07000
v 1.15000 0.70000 1.07000
v 1.19000 0.00000 1.08072
v 1.19000 0.70000 1.08072
v 1.21928 0.00000 1.11000
v 1.21928 0.70000 1.11000
v 1.15000 0.35000 0.00000
v 1.15000 0.35000 0.70000
f 1 2 3
f 1 3 4
f 5 8 7
f 5 7 6
f 1 5 6
f 1 6 2
f 4 3 7
f 4 7 8
f 1 4 8
f 1 8 5
f 2 6 7
f 2 7 3
f 9 10 11
f 9 11 12
f 13 16 15
f 13 15 14
f 9 13 14
f 9 14 10
f 12 11 15
f 12 15 16
f 9 12 16
f 9 16 13
f 10 14 15
f 10 15 11
f 17 19 20
f 17 20 18
f 19 21 22
f 19 22 20
f 21 23 24
f 21 24 22
f 23 25 26
f 23 26 24
f 25 27 28
f 25 28 26
f 27 29 30
f 27 30 28
f 29 31 32
f 29 32 30
f 31 33 34
f 31 34 32
f 33 35 36
f 33 36 34
f 35 37 38
f 35 38 36
f 37 39 40
f 37 40 38
f 39 17 18
f 39 18 40
f 41 19 17
f 42 18 20
f 41 21 19
f 42 20 22
f 41 23 21
f 42 22 24
f 41 25 23
f 42 24 26
f 41 27 25
f 42 26 28
f 41 29 27
f 42 28 30
f 41 31 29
f 42 30 32
f 41 33 31
f 42 32 34
f 41 35 33
f 42 34 36
f 41 37 35
f 42 36 38
f 41 39 37
f 42 38 40
f 41 17 39
f 42 40 18
f 43 45 46
f 43 46 44
f 45 47 48
f 45 48 46
f 47 49 50
f 47 50 48
f 49 51 52
f 49 52 50
f 51 53 54
f 51 54 52
f 53 55 56
f 53 56 54
f 55 57 58
f 55 58 56
f 57 59 60
f 57 60 58
f 59 61 62
f 59 62 60
f 61 63 64
f 61 64 62
f 63 65 66
f 63 66 64
f 65 43 44
f 65 44 66
f 67 45 43
f 68 44 46
f 67 47 45
f 68 46 48
f 67 49 47
f 68 48 50
f 67 51 49
f 68 50 52
f 67 53 51
f 68 52 54
f 67 55 53
f 68 54 56
f 67 57 55
f 68 56 58
f 67 59 57
f 68 58 60
f 67 61 59
f 68 60 62
f 67 63 61
f 68 62 64
f 67 65 63
f 68 64 66
f 67 43 65
f 68 66 44
f 69 71 72
f 69 72 70
f 71 73 74
f 71 74 72
f 73 75 76
f 73 76 74
f 75 77 78
f 75 78 76
f 77 79 80
f 77 80 78
f 79 81 82
f 79 82 80
f 81 83 84
f 81 84 82
f 83 85 86
f 83 86 84
f 85 87 88
f 85 88 86
f 87 89 90
f 87 90 88
f 89 91 92
f 89 92 90
f 91 69 70
f 91 70 92
f 93 71 69
f 94 70 72
f 93 73 71
f 94 72 74
f 93 75 73
f 94 74 76
f 93 77 75
f 94 76 78
f 93 79 77
f 94 78 80
f 93 81 79
f 94 80 82
f 93 83 81
f 94 82 84
f 93 85 83
f 94 84 86
f 93 87 85
f 94 86 88
f 93 89 87
f 94 88 90
f 93 91 89
f 94 90 92
f 93 69 91
f 94 92 70
f 95 97 98
f 95 98 96
f 97 99 100
f 97 100 98
f 99 101 102
f 99 102 100
f 101 103 104
f 101 104 102
f 103 105 106
f 103 106 104
f 105 107 108
f 105 108 106
f 107 109 110
f 107 110 108
f 109 111 112
f 109 112 110
f 111 113 114
f 111 114 112
f 113 115 116
f 113 116 114
f 115 117 118
f 115 118 116
f 117 95 96
f 117 96 118
f 119 97 95
f 120 96 98
f 119 99 97
f 120 98 100
f 119 101 99
f 120 100 102
f 119 103 101
f 120 102 104
f 119 105 103
f 120 104 106
f 119 107 105
f 120 106 108
f 119 109 107
f 120 108 110
f 119 111 109
f 120 110 112
f 119 113 111
f 120 112 114
f 119 115 113
f 120 114 116
f 119 117 115
f 120 116 118
f 119 95 117
f 120 118 96
